<svg xmlns="http://www.w3.org/2000/svg" viewBox="0 0 100 100">
  <defs>
    <linearGradient id="bgGradient" x1="0%" y1="0%" x2="100%" y2="100%">
      <stop offset="0%" stop-color="#2563eb" />
      <stop offset="100%" stop-color="#7c3aed" />
    </linearGradient>
  </defs>
  <rect width="100" height="100" rx="24" fill="url(#bgGradient)" />
  <g transform="translate(25, 25) scale(2)">
    <path d="M19 17h2c.6 0 1-.4 1-1v-3c0-.9-.7-1.7-1.5-1.9C18.7 10.6 16 10 16 10s-1.3-1.4-2.2-2.3c-.5-.4-1.1-.7-1.8-.7H5c-.6 0-1.1.4-1.4.9l-1.4 2.9A3.7 3.7 0 0 0 2 12v4c0 .6.4 1 1 1h2" stroke="white" stroke-width="1.5" stroke-linecap="round" stroke-linejoin="round" fill="none"/>
    <circle cx="7" cy="17" r="2" stroke="white" stroke-width="1.5" fill="none"/>
    <path d="M9 17h6" stroke="white" stroke-width="1.5" stroke-linecap="round"/>
    <circle cx="17" cy="17" r="2" stroke="white" stroke-width="1.5" fill="none"/>
  </g>
</svg>
